<svg width="24" height="24" viewBox="0 0 24 24" fill="none" xmlns="http://www.w3.org/2000/svg">
<path d="M7.71551 6.67991C9.12145 4.24476 9.82441 3.02718 10.7422 2.61857C11.5427 2.26215 12.4568 2.26215 13.2574 2.61857C14.1751 3.02718 14.8781 4.24476 16.284 6.67992L19.6026 12.4278C21.0085 14.8629 21.7115 16.0805 21.6065 17.0796C21.5149 17.9511 21.0578 18.7428 20.3489 19.2578C19.5361 19.8483 18.1302 19.8483 15.3183 19.8483H8.68123C5.86936 19.8483 4.46342 19.8483 3.65067 19.2578C2.94175 18.7428 2.48467 17.9511 2.39308 17.0796C2.28807 16.0805 2.99104 14.8629 4.39697 12.4278L7.71551 6.67991Z" fill="url(#paint0_linear_1022_68812)"/>
<path d="M10.7424 2.61851C11.5428 2.26218 12.4568 2.26217 13.2572 2.61851C14.175 3.02712 14.8779 4.24485 16.2839 6.68001L19.6026 12.4277C21.0085 14.8628 21.7116 16.0806 21.6065 17.0798L21.5849 17.2422C21.4565 18.049 21.0135 18.7751 20.3489 19.258L20.2708 19.3116C19.5531 19.7791 18.395 19.8392 16.3083 19.847L15.3184 19.8481V18.0181C16.7603 18.0181 17.7148 18.0161 18.4159 17.9518C18.7542 17.9208 18.9712 17.8801 19.1118 17.8399C19.1785 17.8208 19.2201 17.8039 19.2438 17.793C19.2556 17.7875 19.2633 17.7832 19.2675 17.7807C19.2696 17.7795 19.271 17.7785 19.2718 17.778C19.2724 17.7776 19.2729 17.7773 19.273 17.7772C19.5623 17.567 19.7489 17.2438 19.7863 16.8882C19.7863 16.888 19.7863 16.8876 19.7863 16.887C19.7864 16.886 19.7867 16.8839 19.7867 16.8815C19.7867 16.8766 19.7863 16.8681 19.7851 16.8554C19.7828 16.8295 19.7768 16.7847 19.7599 16.7171C19.7245 16.5752 19.6514 16.3671 19.5092 16.0587C19.2143 15.4193 18.7388 14.5915 18.0177 13.3427L14.699 7.59505C13.978 6.34623 13.4991 5.52034 13.0928 4.94534C12.8969 4.66792 12.7529 4.50055 12.6477 4.39891C12.5977 4.35057 12.5622 4.32283 12.5409 4.30784C12.5304 4.30046 12.523 4.29606 12.5188 4.29365C12.5167 4.29245 12.5154 4.29136 12.5145 4.29089C12.5136 4.29043 12.5129 4.2905 12.5129 4.2905C12.1863 4.14508 11.8134 4.14509 11.4867 4.2905C11.4867 4.2905 11.486 4.29043 11.4851 4.29089C11.4842 4.29135 11.4829 4.29245 11.4808 4.29365C11.4766 4.29607 11.4689 4.30041 11.4583 4.30784C11.437 4.32286 11.4015 4.35057 11.3515 4.39891C11.2463 4.50055 11.1027 4.66797 10.9068 4.94534C10.5005 5.52034 10.0216 6.34623 9.30062 7.59505L5.98188 13.3427C5.26087 14.5916 4.7853 15.4193 4.49045 16.0587C4.34823 16.3671 4.27516 16.5752 4.23971 16.7171C4.22283 16.7847 4.2164 16.8294 4.21409 16.8554C4.21296 16.8681 4.21289 16.8766 4.2129 16.8815C4.21291 16.8839 4.21285 16.886 4.2129 16.887C4.21294 16.8876 4.21328 16.888 4.2133 16.8882C4.25067 17.2437 4.43698 17.567 4.72621 17.7772C4.72621 17.7772 4.72693 17.7774 4.72779 17.778C4.72865 17.7785 4.73005 17.7795 4.73212 17.7807C4.73633 17.7832 4.74371 17.7875 4.75538 17.793C4.77905 17.8039 4.82087 17.8207 4.88785 17.8399C5.02842 17.8801 5.24517 17.9208 5.5833 17.9518C6.28439 18.0162 7.23925 18.0181 8.68126 18.0181V19.8481L7.69092 19.847C5.60452 19.8392 4.44648 19.7791 3.72877 19.3116L3.65071 19.258C2.98614 18.7751 2.54268 18.0491 2.41436 17.2422L2.39307 17.0798C2.30119 16.2055 2.82807 15.164 3.90303 13.286L4.39702 12.4277L7.71537 6.68001C9.07741 4.32087 9.77983 3.10429 10.6568 2.65912L10.7424 2.61851ZM15.3184 18.0181V19.8481H8.68126V18.0181H15.3184Z" fill="white" fill-opacity="0.1"/>
<path d="M10.7416 2.61924C11.5421 2.26283 12.457 2.26283 13.2575 2.61924C14.175 3.02801 14.8776 4.24574 16.2832 6.68024L19.6026 12.4286C21.0081 14.8632 21.7108 16.0807 21.6061 17.0797C21.5145 17.9512 21.057 18.7433 20.3481 19.2584C19.5353 19.8487 18.1292 19.8485 15.3176 19.8485V19.5798C16.7287 19.5798 17.7687 19.5784 18.558 19.506C19.3487 19.4335 19.8438 19.2913 20.19 19.0397C20.8369 18.5696 21.2537 17.8474 21.3373 17.0521C21.3821 16.6264 21.2589 16.1266 20.9264 15.4055C20.5944 14.6858 20.0737 13.7851 19.3681 12.563L16.05 6.81591C15.3444 5.59373 14.824 4.69315 14.3666 4.04579C13.9084 3.39729 13.5378 3.03964 13.1468 2.86556C12.4165 2.54051 11.5826 2.54055 10.8522 2.86556C10.4613 3.03963 10.0906 3.39735 9.63249 4.04579C9.17512 4.69315 8.65471 5.59373 7.94908 6.81591L4.62968 12.563C3.92409 13.7851 3.40466 14.6858 3.07272 15.4055C2.74019 16.1266 2.6157 16.6264 2.66043 17.0521C2.74403 17.8474 3.16205 18.5696 3.80905 19.0397C4.1553 19.2913 4.65037 19.4335 5.44109 19.506C6.23034 19.5784 7.27046 19.5798 8.68146 19.5798V19.8485L6.82285 19.8393C5.33842 19.8139 4.42228 19.7191 3.81036 19.3625L3.65098 19.2584C3.03057 18.8077 2.60288 18.145 2.4444 17.4024L2.39303 17.0797C2.31448 16.3305 2.69006 15.4585 3.47579 14.0422L4.39653 12.4286L7.71461 6.68024C9.03263 4.39736 9.73312 3.18427 10.5717 2.70486L10.7416 2.61924ZM15.3176 19.5798V19.8485H8.68146V19.5798H15.3176Z" fill="black" fill-opacity="0.1"/>
<defs>
<linearGradient id="paint0_linear_1022_68812" x1="-1.72639" y1="-0.740797" x2="25.9729" y2="26.9585" gradientUnits="userSpaceOnUse">
<stop offset="0.111693" stop-color="#6EF749"/>
<stop offset="0.434003" stop-color="#45DE1B"/>
<stop offset="1" stop-color="#25AB00"/>
</linearGradient>
</defs>
</svg>
