<svg width="24" height="24" viewBox="0 0 24 24" fill="none" xmlns="http://www.w3.org/2000/svg">
<path d="M2 6C2 3.79086 3.79086 2 6 2H18C20.2091 2 22 3.79086 22 6V18C22 20.2091 20.2091 22 18 22H6C3.79086 22 2 20.2091 2 18V6Z" fill="#FF9421"/>
<path fill-rule="evenodd" clip-rule="evenodd" d="M15.4831 12.4349C16.2282 12.2863 16.7973 11.8323 16.9669 10.8739C17.2008 9.56498 16.1676 8.83788 14.7443 8.33803L15.2471 6.56869L14.118 6.27608L13.628 7.99897C13.3309 7.92199 13.0262 7.84898 12.723 7.77668L13.2156 6.04238L12.0871 5.75L11.584 7.51868C11.3381 7.46016 11.0966 7.40274 10.862 7.34194L10.8636 7.33646L9.30606 6.93228L8.97926 8.08267C8.97926 8.08267 9.81736 8.28364 9.79955 8.29469C10.2569 8.41361 10.3343 8.70558 10.3148 8.93506L9.74217 10.9513C9.77362 10.9594 9.8143 10.9711 9.85963 10.9895C9.82152 10.9797 9.78126 10.9692 9.74009 10.9585L8.93723 13.7828C8.87844 13.915 8.73107 14.1122 8.41119 14.0297C8.42232 14.0455 7.58973 13.8168 7.58973 13.8168L7 15.0449L8.46943 15.4256C8.74325 15.4969 9.01119 15.5708 9.27412 15.641L8.76637 17.4312L9.89462 17.7238L10.3977 15.9526C10.7062 16.0393 11.0053 16.1196 11.2978 16.1951L10.7965 17.9577L11.9256 18.25L12.4339 16.4637C14.3624 16.8517 15.8208 16.7397 16.4698 15.0819C16.9925 13.747 16.4909 12.9609 15.4831 12.4349ZM12.3916 9.04997C13.0291 9.21514 15.0873 9.54064 14.7266 10.8099C14.3805 12.0268 12.4182 11.3656 11.7803 11.2003L12.3916 9.04997ZM10.7939 14.6571L11.4684 12.2861C12.2341 12.4845 14.694 12.8964 14.2976 14.2916C13.9176 15.6295 11.5602 14.855 10.7939 14.6571Z" fill="#F6F6F6"/>
</svg>
